<svg width="322.793" height="379.84" xmlns="http://www.w3.org/2000/svg">

 <g>
  <title>background</title>
  <rect fill="none" id="canvas_background" height="402" width="582" y="-1" x="-1"/>
 </g>
 <g>
  <title>Layer 1</title>
  <path id="svg_2" d="m161.396,0.396c-38.436,0 -109.309,9.944 -145.402,30.932c-47.52,168.475 17.107,283.042 145.402,348.068c128.296,-65.026 192.923,-180.16 145.402,-348.067c-36.129,-20.989 -106.967,-30.933 -145.402,-30.933l0,0z" stroke-miterlimit="282" stroke-width="0.793" stroke="#9C824A" fill="#9C824A"/>
  <path id="svg_3" d="m161.396,11.228c-37.761,0 -80.278,4.83 -135.962,27.558c-41.452,147.061 6.637,264.931 135.962,329.174c129.325,-64.243 177.378,-182.114 135.926,-329.174c-55.684,-22.728 -98.165,-27.558 -135.926,-27.558l0,0z" stroke-miterlimit="282" stroke-width="0.793" stroke="#023474" fill="#ffff00"/>
  <path id="svg_4" d="m161.219,11.086c-37.584,0 -77.936,5.575 -114.349,19.355c-37.761,150.577 -9.901,260.526 114.562,337.413l-0.213,-356.768l0,0zm0.213,356.768c124.462,-76.887 152.287,-186.836 114.525,-337.413c-36.412,-13.78 -76.729,-19.355 -114.312,-19.355l-0.213,356.768l0,0z" stroke-miterlimit="282" stroke-width="0.793" stroke="#FFFFFF" fill="#0f0808"/>
  <path id="svg_5" d="m161.432,11.051c-37.797,0 -76.055,5.717 -107.144,16.548c-39.11,157.822 -7.702,264.397 107.179,337.235l-0.035,-353.783l0,0z" stroke-miterlimit="282" stroke-width="0.793" stroke="#EF0107" fill="#EF0107"/>
  <path id="svg_6" d="m161.503,11.051c37.796,0 76.055,5.717 107.179,16.548c39.11,157.822 7.701,264.397 -107.214,337.235l0.035,-353.783l0,0z" stroke-miterlimit="282" stroke-width="0.793" stroke="#DB0007" fill="#DB0007"/>
  <path id="svg_7" d="m112.598,249.203c-16.68,11.437 -29.953,15.556 -45.356,19.64l-9.298,-14.454c14.161,-7.173 28.818,-17.153 43.582,-31.606c1.242,14.026 7.771,23.969 11.072,26.42l0,0z" fill="#FFFFFF"/>
  <path id="svg_8" d="m110.326,248.6c-15.828,10.866 -37.868,18.431 -63.101,22.124l-5.146,-7.812c21.613,-8.099 42.481,-20.172 58.665,-37.147c2.449,10.866 6.175,18.076 9.582,22.835l0,0z" fill="#00bfbf"/>
  <path id="svg_9" d="m68.165,182.225c0,6.073 -4.897,10.974 -10.966,10.974s-11.002,-4.901 -11.002,-10.974l0,0c0,-6.073 4.933,-10.973 11.002,-10.973s10.966,4.9 10.966,10.973l0,0z" fill="#FFFFFF"/>
  <path id="svg_10" d="m66.993,160.597l0,41.409l32.615,0c2.129,-13.886 10.008,-28.624 27.859,-41.409l-60.474,0" fill="#FFFFFF"/>
  <path id="svg_11" d="m68.307,202.006c-7.276,0.106 -13.273,-9.021 -13.38,-20.456c-0.071,-11.436 5.75,-20.811 13.061,-20.953c0.071,0 0.142,0 0.249,0" fill="#FFFFFF"/>
  <path id="svg_12" d="m63.551,182.225c0,4.688 -3.407,8.453 -7.595,8.453c-4.188,0 -7.595,-3.764 -7.595,-8.453l0,0c0,-4.688 3.407,-8.452 7.595,-8.452c4.188,-0.001 7.595,3.764 7.595,8.452l0,0z" fill="#00bfbf"/>
  <path id="svg_13" d="m67.881,162.764l0,37.217l32.367,0c2.555,-12.358 8.837,-25.498 24.523,-37.217l-56.89,0" fill="#00bfbf"/>
  <path id="svg_14" d="m69.087,199.981c-6.85,0.143 -12.457,-8.096 -12.563,-18.36c-0.071,-10.263 5.43,-18.716 12.279,-18.857c0.071,0 0.142,0 0.213,0" fill="#00bfbf"/>
  <path id="svg_15" d="m223.325,211.701c0,34.556 -27.965,62.539 -62.497,62.539c-34.496,0 -62.497,-27.983 -62.497,-62.539l0,0c0,-34.554 28.001,-62.539 62.497,-62.539c34.532,0 62.497,27.985 62.497,62.539l0,0l0,0z" fill="#FFFFFF"/>
  <path id="svg_16" d="m220.062,211.701c0,32.744 -26.512,59.271 -59.233,59.271c-32.686,0 -59.197,-26.527 -59.197,-59.271l0,0c0,-32.707 26.511,-59.271 59.197,-59.271c32.721,-0.001 59.233,26.528 59.233,59.271l0,0l0,0z" fill="#f7a809"/>
  <path id="svg_17" d="m210.23,211.701c0,27.31 -22.111,49.436 -49.402,49.436c-27.256,0 -49.366,-22.126 -49.366,-49.436l0,0c0,-27.31 22.11,-49.435 49.366,-49.435c27.291,0 49.402,22.125 49.402,49.435l0,0l0,0z" fill="#FFFFFF"/>
  <path id="svg_18" d="m206.966,211.701c0,25.498 -20.656,46.132 -46.138,46.132c-25.446,0 -46.101,-20.634 -46.101,-46.132l0,0c0,-25.498 20.655,-46.131 46.101,-46.131c25.482,-0.001 46.138,20.633 46.138,46.131l0,0l0,0z" fill="#00bfbf"/>
  <path id="svg_19" d="m180.063,211.701c0.036,10.619 -8.588,19.249 -19.2,19.284c-10.646,0 -19.271,-8.629 -19.271,-19.248l0,-0.036c0,-10.619 8.589,-19.248 19.235,-19.248c10.611,-0.035 19.235,8.595 19.235,19.213c0.001,0.035 0.001,0.035 0.001,0.035l0,0z" fill="#FFFFFF"/>
  <path id="svg_20" d="m177.793,211.701c0,9.377 -7.561,16.976 -16.929,16.976c-9.369,0 -16.964,-7.563 -17,-16.939l0,-0.036c0,-9.375 7.595,-16.976 16.964,-16.976s16.965,7.565 16.965,16.94l0,0.035l0,0z" fill="#f7ad1b"/>
  <path id="svg_21" d="m169.559,211.701c0,4.794 -3.904,8.7 -8.73,8.735c-4.791,0 -8.695,-3.905 -8.695,-8.735l0,0c0,-4.829 3.904,-8.7 8.695,-8.735c4.825,-0.001 8.73,3.906 8.73,8.735l0,0l0,0z" fill="#FFFFFF"/>
  <path id="svg_22" d="m167.146,211.701c0,3.48 -2.804,6.321 -6.317,6.321c-3.478,0 -6.317,-2.806 -6.317,-6.321l0,0c0,-3.479 2.839,-6.32 6.317,-6.32c3.477,-0.001 6.317,2.804 6.317,6.32l0,0l0,0z" fill="#f7ad1b"/>
  <rect id="svg_23" height="30.647" width="13.131" fill="#FFFFFF" y="164.504" x="154.192"/>
  <rect id="svg_24" height="38.958" width="9.049" fill="#f7ad1b" y="160.1" x="156.25"/>
  <polygon id="svg_25" points="197.418,181.798 204.587,192.807 178.893,209.5 171.76,198.49  " fill="#FFFFFF"/>
  <polygon id="svg_26" points="202.21,181.124 207.143,188.724 174.492,209.961 169.559,202.326  " fill="#f7ad1b"/>
  <polygon id="svg_27" points="142.409,214.187 149.436,225.267 123.564,241.675 116.537,230.559  " fill="#FFFFFF"/>
  <polygon id="svg_28" points="146.81,213.548 151.672,221.219 118.809,242.065 113.946,234.394  " fill="#f7ad1b"/>
  <rect id="svg_29" height="30.646" width="13.131" fill="#FFFFFF" y="229.281" x="154.192"/>
  <rect id="svg_30" height="38.922" width="9.049" fill="#f7ad1b" y="224.913" x="156.25"/>
  <path id="svg_31" d="m148.017,226.013c1.775,1.491 3.726,2.841 6.175,3.871l-0.071,27.345c-12.386,-1.598 -21.755,-7.706 -28.853,-16.406l22.785,-14.81" stroke-miterlimit="282" stroke-width="0.3115" stroke="#EF0107" fill="#EF0107"/>
  <path id="svg_32" d="m173.604,226.12c-1.81,1.456 -3.727,2.841 -6.175,3.835l0.035,27.346c12.386,-1.598 21.756,-7.706 28.854,-16.407l-22.749,-14.773" stroke-miterlimit="282" stroke-width="0.3115" stroke="#DB0007" fill="#DB0007"/>
  <path id="svg_33" d="m179.815,214.649l27.114,-3.268c0.213,6.782 -1.42,12.749 -3.727,18.467l-23.459,-15.199" fill="#DB0007"/>
  <path id="svg_34" d="m179.851,214.542c0.106,-0.426 0.071,-0.816 0.249,-2.059l26.76,-3.48c0.106,1.243 0.035,1.704 0,2.272l-27.009,3.267l0,0z" stroke-miterlimit="282" stroke-width="0.3115" stroke="#FFFFFF" fill="#FFFFFF"/>
  <path id="svg_35" d="m219.458,191.992l35.1,0c-1.101,4.154 -2.166,8.38 -7.206,10.263c-8.056,3.02 -24.771,5.931 -24.771,5.931c-0.32,-4.582 -1.349,-10.798 -3.123,-16.194l0,0z" fill="#FFFFFF"/>
  <path id="svg_36" d="m195.006,159.994l91.705,0.106l-3.229,33.524l-62.64,3.268c-3.372,-14.987 -14.765,-29.298 -25.836,-36.898l0,0z" fill="#FFFFFF"/>
  <path id="svg_37" d="m198.27,162.373l117.081,0.106l-4.472,27.311l-90.854,4.475c-3.585,-13.567 -11.782,-23.475 -21.755,-31.892l0,0z" fill="#00bfbf"/>
  <path id="svg_38" d="m219.458,191.992l32.33,0c-1.064,3.692 -1.81,7.066 -6.565,8.735c-7.559,2.699 -22.784,4.83 -22.784,4.83c-0.639,-4.438 -1.562,-8.949 -2.981,-13.565l0,0z" fill="#00bfbf"/>
  <polygon id="svg_47" points="117.673,190.287 124.877,179.313 150.501,196.075 143.296,207.084  " fill="#FFFFFF"/>
  <polygon id="svg_48" points="115.295,186.522 120.264,178.922 152.808,200.265 147.839,207.866  " fill="#f7ad1b"/>
  <polygon id="svg_49" points="172.363,225.232 179.567,214.222 205.19,231.02 197.986,242.03  " fill="#FFFFFF"/>
  <polygon id="svg_50" points="169.984,221.467 174.953,213.868 207.498,235.211 202.529,242.776  " fill="#f7ad1b"/>
 </g>
</svg>