<svg xmlns:dc="http://purl.org/dc/elements/1.1/" xmlns:cc="http://creativecommons.org/ns#" xmlns:rdf="http://www.w3.org/1999/02/22-rdf-syntax-ns#" xmlns:svg="http://www.w3.org/2000/svg" xmlns:sodipodi="http://sodipodi.sourceforge.net/DTD/sodipodi-0.dtd" xmlns:inkscape="http://www.inkscape.org/namespaces/inkscape" xmlns="http://www.w3.org/2000/svg" xmlns:xlink="http://www.w3.org/1999/xlink" version="1.1" sodipodi:docname="AFC-Bournemouth-(2013).svg" inkscape:version="0.48.3.1 r9886" width="240.8820037841797" height="315.8299865722656" enable-background="new 0 0 240.882 315.83" xml:space="preserve" style=""><rect id="backgroundrect" width="100%" height="100%" x="0" y="0" fill="none" stroke="none"/>
<sodipodi:namedview id="namedview397" inkscape:current-layer="svg2" inkscape:window-y="0" inkscape:window-x="0" fit-margin-bottom="0" fit-margin-right="0" inkscape:window-height="480" inkscape:window-width="640" inkscape:pageshadow="2" inkscape:pageopacity="0" inkscape:cy="166.09904" inkscape:cx="-312.961" inkscape:zoom="0.21796875" fit-margin-left="0" fit-margin-top="0" showgrid="false" guidetolerance="10" gridtolerance="10" objecttolerance="10" borderopacity="1" bordercolor="#666666" pagecolor="#ffffff" inkscape:window-maximized="0">
	</sodipodi:namedview>



























<g class="currentLayer" style=""><title>Layer 1</title><g id="svg_1">
	<defs>
		<rect id="SVGID_1_" y="-0.0010000000474974513" width="240.8820037841797" height="315.83099365234375"/>
	</defs>
	<clipPath id="SVGID_2_">
		<use xlink:href="#SVGID_1_" overflow="visible" id="svg_2"/>
	</clipPath>
	<path id="path14" inkscape:connector-curvature="0" clip-path="url(#SVGID_2_)" fill="#FFFFFF" d="M120.441,157.444v0.008   c0-0.049,0-0.085,0-0.133C120.441,157.367,120.441,157.395,120.441,157.444"/>
</g><g id="svg_3" class="" fill="#41e8e8" fill-opacity="1">
	<defs>
		<path id="SVGID_3_" d="M10.918,36.173v79.367c16.879,138.167,110.13,191.982,110.13,191.982s101.705-69.367,108.824-191.982    V36.173H10.918z" fill="#41e8e8" fill-opacity="1"/>
	</defs>
	<clipPath id="SVGID_4_">
		<use xlink:href="#SVGID_3_" overflow="visible" id="svg_4"/>
	</clipPath>
	
		<linearGradient id="polygon29_1_" x1="0.3874136209487915" y1="0.7821781635284424" x2="0.6493319272994995" y2="0.13014990091323853">
		<stop offset="0" style="stop-color:#8B0304"/>
		<stop offset="1" style="stop-color:#ED1C24"/>
	</linearGradient>
	<polygon id="polygon29" clip-path="url(#SVGID_4_)" fill="#41e8e8" points="201.591,380.957 -80.089,272.474    39.199,-37.261 320.88,71.222  " fill-opacity="1"/>
</g><g id="svg_5">
	<defs>
		<rect id="SVGID_5_" y="-0.0010000000474974513" width="240.8820037841797" height="315.83099365234375"/>
	</defs>
	<clipPath id="SVGID_6_">
		<use xlink:href="#SVGID_5_" overflow="visible" id="svg_6"/>
	</clipPath>
	<path id="path39" inkscape:connector-curvature="0" clip-path="url(#SVGID_6_)" fill="#FFFFFF" d="M143.052,148.961   L143.052,148.961c1.539,0.14,3.097,0.224,4.668,0.243C146.148,149.185,144.591,149.101,143.052,148.961"/>
</g><g id="svg_7">
	<defs>
		<rect id="SVGID_7_" y="-0.0010000000474974513" width="240.8820037841797" height="315.83099365234375"/>
	</defs>
	<clipPath id="SVGID_8_">
		<use xlink:href="#SVGID_7_" overflow="visible" id="svg_8"/>
	</clipPath>
	<polygon id="polygon41" clip-path="url(#SVGID_8_)" fill="#FFFFFF" points="139.583,148.571 139.583,148.585 139.591,148.571  "/>
</g><g id="svg_9">
	<defs>
		<rect id="SVGID_9_" y="-0.0010000000474974513" width="240.8820037841797" height="315.83099365234375"/>
	</defs>
	<clipPath id="SVGID_10_">
		<use xlink:href="#SVGID_9_" overflow="visible" id="svg_10"/>
	</clipPath>
	<path id="path43" inkscape:connector-curvature="0" clip-path="url(#SVGID_10_)" fill="#FFFFFF" d="M95.748,139.645l-24.595-0.652   l-0.442,9.763c0,0-3.613-0.209-7.423,0c-3.815,0.23-4.03,5.522-4.03,5.522s-2.974-0.211-6.149,0.633   c-3.178,0.852-2.754,5.736-2.754,5.736s-8.279,0.215-11.035,3.393c-2.759,3.195-3.176,9.754-0.413,13.576   c2.749,3.822,18.442,26.297,22.473,35.208c4.031,8.921,4.674,39.047,4.674,39.047l0.238,0.719l0.011,0.007   c14.067,17.363,31.788,34.082,54.166,49.088c7.58-5.076,14.626-10.375,21.169-15.818l-40.797-47.09l2.499-2.166l0.792-0.043   c0.265-0.017,0.524-0.029,0.797-0.029c1.47,0.014,2.906,0.184,4.551,0.178c2.619,0,5.704-0.371,9.693-2.474   c1.638-0.882,2.711-2.109,3.431-3.604c0.724-1.503,1.054-3.246,1.034-4.929c0.02-1.806-0.408-3.539-0.889-4.479   c-0.769-1.573-2.513-2.804-4.434-3.572c-1.908-0.785-3.847-1.096-4.543-1.174c-0.203-0.036-0.271-0.036-0.271-0.036h-0.122   l-2.32-0.412l-7.661-8.536l3.631-3.135l6.499,7.227l0.503,0.086c0.496,0.055,2.328,0.273,4.524,0.984l-9.041-10.448l3.629-3.153   l53.987,62.332c0.642-0.718,1.262-1.43,1.884-2.146l-53.733-62.022l3.626-3.143l53.274,61.48c0.609-0.729,1.22-1.477,1.818-2.201   l-52.959-61.125l1.257-1.088c0,0,1.833,0.521,4.712,0.629l50.043,57.77c0.59-0.761,1.188-1.514,1.771-2.279l-48.138-55.562   c1.681-0.127,3.533-0.437,5.486-1.004l45.597,52.628c0.564-0.785,1.123-1.559,1.688-2.354l-44.445-51.293   c1.611-0.814,2.76-1.938,3.563-3.216l43.713,50.45c0.543-0.802,1.102-1.629,1.627-2.438l-44.082-50.881   c0.812-2.847,0.572-5.711,0.42-6.851l46.371,53.524c0.526-0.834,1.049-1.672,1.563-2.512l-50.292-58.046v-7.331l52.888,61.045   c0.571-0.99,1.144-1.975,1.699-2.974l-63.115-73.13c-0.64-0.164-1.262-0.357-1.892-0.534c-2.565-0.754-5.058-1.674-7.478-2.741   c-0.459-0.206-0.912-0.438-1.364-0.663c-1.534-0.73-3.037-1.514-4.504-2.369c-0.51-0.299-1.015-0.61-1.518-0.925   c-1.419-0.888-2.79-1.824-4.127-2.827c-0.418-0.308-0.84-0.612-1.253-0.942c-1.583-1.246-3.097-2.564-4.545-3.956   c-0.083-0.077-0.178-0.145-0.26-0.226C100.584,133.097,95.748,139.645,95.748,139.645"/>
</g><g id="svg_11">
	<defs>
		<rect id="SVGID_11_" width="240.8820037841797" height="315.8299865722656"/>
	</defs>
	<clipPath id="SVGID_12_">
		<use xlink:href="#SVGID_11_" overflow="visible" id="svg_12"/>
	</clipPath>
	<path id="path53" inkscape:connector-curvature="0" clip-path="url(#SVGID_12_)" fill="#FFFFFF" d="M17.291,145.43   c2.586,13.644,6.573,28.806,12.732,44.604c0.472,1.196,0.994,2.405,1.483,3.61c-0.489-1.205-1.012-2.414-1.483-3.617   C23.864,174.235,19.877,159.073,17.291,145.43"/>
</g><g id="svg_13" class="">
	<defs>
		<rect id="SVGID_13_" width="240.8820037841797" height="315.8299865722656"/>
	</defs>
	<clipPath id="SVGID_14_">
		<use xlink:href="#SVGID_13_" overflow="visible" id="svg_14"/>
	</clipPath>
	<path id="path55" inkscape:connector-curvature="0" clip-path="url(#SVGID_14_)" d="M0.04,17.138V50.4H0l0.068,45.977   c-0.02,1.04-0.028,2.14-0.028,3.306c0,1.131,0.016,2.353,0.036,3.598v0.194H0.08c0.079,4.65,0.313,10.036,0.798,16.069   c1.611,19.807,6.041,46.438,17.228,75.143c15.541,39.914,44.303,83.89,96.422,118.435l5.869,3.744l5.974-3.732   c4.891-3.245,9.576-6.565,14.057-9.942c40.313-30.521,64.709-66.797,79.26-100.832l0.061-0.146l0.117-0.297   c1.036-2.418,2.019-4.833,2.963-7.239c0.981-2.546,1.92-5.063,2.803-7.571c13.05-36.861,15.246-69.479,15.255-87.427   c0-0.674-0.011-1.282-0.017-1.913l0.017-0.008V57.81v-7.409V17.139C162.229-5.713,78.692-5.713,0.04,17.138 M196.471,213.71   l-17.468-19.54l0,0v-57.762c8.873-9.547,13.158-22.528,12.947-36.785c-0.19-13.32-4.125-25.888-12.947-35.743V44.736   c5.043,0.693,12.461,2.008,17.484,2.877l-0.015,166.097H196.471z M160.707,172.894l-1.601-1.683l-16.151-18.72   c0.681-0.01,1.363-0.01,2.041-0.042c4.941-0.278,11.268-2.271,15.711-3.865V172.894L160.707,172.894z M145.317,282.774   l-35.75-41.254c1.072,0,2.267-0.072,3.551-0.268l34.313,39.656C146.729,281.511,146.019,282.149,145.317,282.774 M151.003,277.688   l-32.712-37.771c0.88-0.339,1.773-0.742,2.701-1.207l32.078,37.071C152.395,276.419,151.701,277.051,151.003,277.688    M156.539,272.444l-31.691-36.616c0.654-0.736,1.202-1.515,1.678-2.34l32.018,36.964   C157.873,271.115,157.219,271.769,156.539,272.444 M161.912,267.004l-33.645-38.828c0.115-0.834,0.174-1.646,0.174-2.468   c0-0.584-0.031-1.174-0.089-1.75l35.517,40.984C163.228,265.637,162.563,266.332,161.912,267.004 M194.781,223.428l-52.889-61.044   v7.331l50.292,58.046c-0.517,0.84-1.036,1.678-1.563,2.512l-46.373-53.524c0.155,1.14,0.394,4.004-0.418,6.851l44.082,50.881   c-0.524,0.809-1.082,1.636-1.627,2.438l-43.713-50.45c-0.804,1.276-1.951,2.4-3.563,3.216l44.445,51.293   c-0.563,0.795-1.121,1.568-1.688,2.354l-45.598-52.628c-1.953,0.567-3.807,0.877-5.485,1.004l48.138,55.562   c-0.581,0.767-1.181,1.52-1.771,2.279l-50.043-57.77c-2.879-0.108-4.713-0.629-4.713-0.629l-1.256,1.088L174,253.36   c-0.602,0.726-1.211,1.473-1.819,2.201l-53.274-61.48l-3.626,3.143l53.734,62.022c-0.623,0.716-1.244,1.428-1.886,2.146   l-53.986-62.332l-3.629,3.153l9.041,10.448c-2.196-0.711-4.028-0.932-4.524-0.984l-0.503-0.086l-6.499-7.227l-3.631,3.135   l7.661,8.536l2.32,0.411h0.121c0,0,0.068,0,0.271,0.037c0.696,0.078,2.635,0.389,4.543,1.174c1.921,0.77,3.665,1.998,4.433,3.572   c0.48,0.94,0.908,2.674,0.889,4.479c0.021,1.683-0.312,3.426-1.033,4.929c-0.721,1.494-1.793,2.723-3.432,3.604   c-3.988,2.103-7.072,2.474-9.692,2.474c-1.645,0.006-3.081-0.164-4.551-0.178c-0.271,0-0.532,0.014-0.798,0.029l-0.792,0.043   l-2.499,2.166l40.797,47.09c-6.543,5.443-13.59,10.742-21.169,15.818C98.086,286.679,80.368,269.96,66.3,252.601l-0.01-0.011   c-15.751-19.408-26.863-39.584-34.786-58.946c-0.487-1.203-1.011-2.414-1.481-3.608c-6.16-15.8-10.147-30.96-12.733-44.604   c-2.887-15.267-3.989-28.565-4.317-38.69V54.303c47.845-12.304,98.865-15.999,147.732-11.608v7.849   c-5.98-2.403-13.966-4.715-20.536-4.76c-28.779-0.25-51.14,23.975-50.706,53.159c0.424,27.914,21.378,50.993,48.169,53.333   l58.847,68.181C195.921,221.455,195.351,222.438,194.781,223.428 M213.991,181.627c0,0.006,0.26,0.01,0.258,0.015V50.966   c4.655,1.032,9.032,2.136,13.66,3.324v52.454l0.05-0.035C227.395,124.254,224.494,151.476,213.991,181.627"/>
</g><g id="svg_15" class="" fill="#eb1a1a" fill-opacity="1">
	<defs>
		<rect id="SVGID_15_" y="-0.0010000000474974513" width="240.8820037841797" height="315.83099365234375" fill="#eb1a1a" fill-opacity="1"/>
	</defs>
	<clipPath id="SVGID_16_">
		<use xlink:href="#SVGID_15_" overflow="visible" id="svg_16"/>
	</clipPath>
	<path id="path65" inkscape:connector-curvature="0" clip-path="url(#SVGID_16_)" fill="#eb1a1a" d="M101.567,123.029l18.453,5.308   l11.06,16.658c3.325,0.796,6.772,1.25,10.301,1.281c3.484,0.018,6.859-0.377,10.103-1.099l10.278-16.203l18.679-5.269   c3.384-5.86,5.513-12.575,6.044-19.789l-12.063-15.34l0.5-19.904c-0.721-0.845-1.467-1.677-2.242-2.461   c-4.133-4.187-8.998-7.599-14.385-9.992l-17.771,6.691l-18.392-7.091c-5.457,2.339-10.339,5.749-14.438,9.972   c-0.699,0.729-1.365,1.484-2.034,2.261l1.158,19.485l-11.823,15.601C95.728,110.335,98.024,117.098,101.567,123.029    M140.777,79.423l19.859,14.75l-7.147,23.558l-24.296-0.159l-7.822-23.665L140.777,79.423z" fill-opacity="1"/>
</g><g id="svg_17">
	<defs>
		<rect id="SVGID_17_" y="-0.0010000000474974513" width="240.8820037841797" height="315.83099365234375"/>
	</defs>
	<clipPath id="SVGID_18_">
		<use xlink:href="#SVGID_17_" overflow="visible" id="svg_18"/>
	</clipPath>
	<polygon id="polygon67" clip-path="url(#SVGID_18_)" points="160.636,93.908 140.777,79.158 121.373,93.641 129.193,117.306    153.489,117.465  "/>
</g><g id="svg_19">
	<defs>
		<rect id="SVGID_19_" y="-0.0010000000474974513" width="240.8820037841797" height="315.83099365234375"/>
	</defs>
	<clipPath id="SVGID_20_">
		<use xlink:href="#SVGID_19_" overflow="visible" id="svg_20"/>
	</clipPath>
	<path id="path69" inkscape:connector-curvature="0" clip-path="url(#SVGID_20_)" fill="#FFFFFF" d="M109.567,241.521l35.75,41.254   c0.702-0.625,1.412-1.264,2.113-1.865l-34.312-39.656C111.834,241.448,110.639,241.521,109.567,241.521"/>
</g><g id="svg_21">
	<defs>
		<rect id="SVGID_21_" y="-0.0010000000474974513" width="240.8820037841797" height="315.83099365234375"/>
	</defs>
	<clipPath id="SVGID_22_">
		<use xlink:href="#SVGID_21_" overflow="visible" id="svg_22"/>
	</clipPath>
	<path id="path71" inkscape:connector-curvature="0" clip-path="url(#SVGID_22_)" fill="#FFFFFF" d="M118.291,239.917l32.712,37.771   c0.697-0.637,1.394-1.27,2.066-1.907l-32.078-37.072C120.064,239.174,119.171,239.577,118.291,239.917"/>
</g><g id="svg_23">
	<defs>
		<rect id="SVGID_23_" y="-0.0010000000474974513" width="240.8820037841797" height="315.83099365234375"/>
	</defs>
	<clipPath id="SVGID_24_">
		<use xlink:href="#SVGID_23_" overflow="visible" id="svg_24"/>
	</clipPath>
	<path id="path73" inkscape:connector-curvature="0" clip-path="url(#SVGID_24_)" fill="#FFFFFF" d="M124.847,235.828l31.691,36.616   c0.682-0.674,1.334-1.33,2.004-1.993l-32.019-36.964C126.049,234.313,125.501,235.091,124.847,235.828"/>
</g><g id="svg_25">
	<defs>
		<rect id="SVGID_25_" y="-0.0010000000474974513" width="240.8820037841797" height="315.83099365234375"/>
	</defs>
	<clipPath id="SVGID_26_">
		<use xlink:href="#SVGID_25_" overflow="visible" id="svg_26"/>
	</clipPath>
	<path id="path75" inkscape:connector-curvature="0" clip-path="url(#SVGID_26_)" fill="#FFFFFF" d="M128.352,223.959   c0.06,0.576,0.09,1.166,0.09,1.75c0,0.819-0.06,1.634-0.174,2.467l33.646,38.829c0.649-0.673,1.315-1.367,1.957-2.061   L128.352,223.959L128.352,223.959z"/>
</g></g></svg>